<svg xmlns="http://www.w3.org/2000/svg" viewBox="0 0 128 128">
  <defs>
    <linearGradient id="fgrad" x1="0" y1="0" x2="1" y2="1">
      <stop offset="0%" stop-color="#4f7dfb"/>
      <stop offset="100%" stop-color="#22d3ee"/>
    </linearGradient>
    <radialGradient id="glow" cx="50%" cy="30%" r="75%">
      <stop offset="0%" stop-color="#4f7dfb" stop-opacity="0.35"/>
      <stop offset="100%" stop-color="#4f7dfb" stop-opacity="0"/>
    </radialGradient>
  </defs>
  <rect width="128" height="128" rx="30" fill="#05070f"/>
  <rect width="128" height="128" rx="30" fill="url(#glow)"/>
  <path d="M40 30h50a6 6 0 0 1 6 6v10a6 6 0 0 1-6 6H58v14h26a6 6 0 0 1 6 6v10a6 6 0 0 1-6 6H58v22a6 6 0 0 1-6 6H40a6 6 0 0 1-6-6V36a6 6 0 0 1 6-6Z"
        fill="url(#fgrad)"/>
</svg>
